<svg width="25" height="24" viewBox="0 0 25 24" fill="none" xmlns="http://www.w3.org/2000/svg">
<path fill-rule="evenodd" clip-rule="evenodd" d="M7.5504 17.2869V10.2675H6.38049V17.8719C6.38049 18.1949 6.64238 18.4568 6.96544 18.4568H17.4946C17.8176 18.4568 18.0795 18.1949 18.0795 17.8719V10.2675H16.9096V17.2869H7.5504Z" fill="black"/>
<path fill-rule="evenodd" clip-rule="evenodd" d="M12.23 3.99228C12.3935 3.99228 12.5494 4.06066 12.6602 4.18085L19.5205 11.6261C19.6778 11.7969 19.7193 12.0446 19.626 12.2573C19.5328 12.47 19.3225 12.6074 19.0903 12.6074L17.4946 12.6074V11.4375H17.7559L12.23 5.44047L6.70416 11.4375H6.96544L6.96544 12.6074L5.36975 12.6074C5.1375 12.6074 4.92725 12.47 4.83401 12.2573C4.74077 12.0446 4.7822 11.7969 4.93957 11.6261L11.7998 4.18085C11.9106 4.06066 12.0666 3.99228 12.23 3.99228Z" fill="black"/>
</svg>
